<?xml version="1.0" ?><!DOCTYPE svg  PUBLIC '-//W3C//DTD SVG 1.1//EN'  'http://www.w3.org/Graphics/SVG/1.1/DTD/svg11.dtd'><svg enable-background="new 0 0 136 135.099" height="135.099px" id="Layer_1" version="1.1" viewBox="0 0 136 135.099" width="136px" xml:space="preserve" xmlns="http://www.w3.org/2000/svg" xmlns:xlink="http://www.w3.org/1999/xlink"><g><g><g><g><circle cx="68" cy="67.549" fill="#ED7826" r="63.333"/></g></g></g><path d="M112.966,22.947c24.733,24.733,24.735,64.832,0,89.567c-24.732,24.732-64.834,24.733-89.568,0   L112.966,22.947z" fill="#DB6D27"/><g><path d="M129.092,84.246L83.659,38.813l-9.256,9.257L49,44.5l5.236,23.735L35.98,86.491l6.417,6.417l-1.583,1.583    l35.793,35.794C101.938,126.841,122.497,108.43,129.092,84.246z" fill="#CE6028"/></g><path d="M81.132,101.086c11.856,0,21.488-9.658,21.554-21.449l0.133-17.361l-0.199-0.945   l-0.57-1.188l-0.964-0.746c-1.251-0.98-7.591,0.066-9.298-1.483c-1.21-1.106-1.399-3.105-1.767-5.813   c-0.681-5.246-1.109-5.52-1.931-7.297c-2.986-6.316-11.084-11.062-16.649-11.717H56.37c-11.858,0-21.551,9.673-21.551,21.486   v25.064c0,11.791,9.693,21.449,21.551,21.449H81.132z M56.644,50.639h11.949c2.282,0,4.13,1.852,4.13,4.103   c0,2.242-1.848,4.11-4.13,4.11H56.644c-2.281,0-4.125-1.868-4.125-4.11C52.519,52.49,54.363,50.639,56.644,50.639z M52.519,79.318   c0-2.25,1.844-4.087,4.125-4.087h24.28c2.267,0,4.107,1.837,4.107,4.087c0,2.222-1.84,4.088-4.107,4.088h-24.28   C54.363,83.406,52.519,81.54,52.519,79.318z" fill="#FFFFFF" id="Blogger_3_"/></g></svg>